<mxfile host="app.diagrams.net" modified="2023-05-25T18:26:57.048Z" agent="Mozilla/5.0 (Macintosh; Intel Mac OS X 10_15_7) AppleWebKit/605.1.15 (KHTML, like Gecko) Version/16.3 Safari/605.1.15" etag="9wT6_r5ZBsk5AxCquRY5" version="21.3.4" type="google">
  <diagram name="PÃ¡gina-1" id="_DeqkcmVjhcO3u91vnum">
    <mxGraphModel grid="1" page="1" gridSize="10" guides="1" tooltips="1" connect="1" arrows="1" fold="1" pageScale="1" pageWidth="827" pageHeight="1169" math="0" shadow="0">
      <root>
        <mxCell id="0" />
        <mxCell id="1" parent="0" />
        <mxCell id="YFztM4BEIEYdHLUaGDGK-3" value="" style="edgeStyle=orthogonalEdgeStyle;rounded=0;orthogonalLoop=1;jettySize=auto;html=1;strokeWidth=3;fontStyle=1" edge="1" parent="1" source="YFztM4BEIEYdHLUaGDGK-1" target="YFztM4BEIEYdHLUaGDGK-2">
          <mxGeometry relative="1" as="geometry" />
        </mxCell>
        <mxCell id="YFztM4BEIEYdHLUaGDGK-1" value="Inicio" style="ellipse;whiteSpace=wrap;html=1;aspect=fixed;strokeWidth=3;fontStyle=1;fillColor=#b1ddf0;strokeColor=#10739e;" vertex="1" parent="1">
          <mxGeometry x="374" y="10" width="80" height="80" as="geometry" />
        </mxCell>
        <mxCell id="YFztM4BEIEYdHLUaGDGK-5" value="" style="edgeStyle=orthogonalEdgeStyle;rounded=0;orthogonalLoop=1;jettySize=auto;html=1;strokeWidth=3;fontStyle=1" edge="1" parent="1" source="YFztM4BEIEYdHLUaGDGK-2" target="YFztM4BEIEYdHLUaGDGK-4">
          <mxGeometry relative="1" as="geometry" />
        </mxCell>
        <mxCell id="YFztM4BEIEYdHLUaGDGK-2" value="Nome, nota1b, nota2b, nota12b, nota22b, nota13b, nota23b, nota14b, nota24b" style="shape=parallelogram;perimeter=parallelogramPerimeter;whiteSpace=wrap;html=1;fixedSize=1;strokeWidth=3;fontStyle=1;fillColor=#b0e3e6;strokeColor=#0e8088;fontSize=12;" vertex="1" parent="1">
          <mxGeometry x="296" y="180" width="236" height="80" as="geometry" />
        </mxCell>
        <mxCell id="YFztM4BEIEYdHLUaGDGK-7" value="" style="edgeStyle=orthogonalEdgeStyle;rounded=0;orthogonalLoop=1;jettySize=auto;html=1;strokeWidth=3;fontStyle=1" edge="1" parent="1" source="YFztM4BEIEYdHLUaGDGK-4" target="YFztM4BEIEYdHLUaGDGK-6">
          <mxGeometry relative="1" as="geometry" />
        </mxCell>
        <mxCell id="YFztM4BEIEYdHLUaGDGK-9" value="" style="edgeStyle=orthogonalEdgeStyle;rounded=0;orthogonalLoop=1;jettySize=auto;html=1;strokeWidth=3;fontStyle=1" edge="1" parent="1" source="YFztM4BEIEYdHLUaGDGK-4" target="YFztM4BEIEYdHLUaGDGK-8">
          <mxGeometry relative="1" as="geometry" />
        </mxCell>
        <mxCell id="YFztM4BEIEYdHLUaGDGK-4" value="media&amp;lt;7" style="rhombus;whiteSpace=wrap;html=1;strokeWidth=3;fontStyle=1;fillColor=#d0cee2;strokeColor=#56517e;" vertex="1" parent="1">
          <mxGeometry x="374" y="310" width="80" height="80" as="geometry" />
        </mxCell>
        <mxCell id="YFztM4BEIEYdHLUaGDGK-11" value="" style="edgeStyle=orthogonalEdgeStyle;rounded=0;orthogonalLoop=1;jettySize=auto;html=1;strokeWidth=3;fontStyle=1" edge="1" parent="1" source="YFztM4BEIEYdHLUaGDGK-6" target="YFztM4BEIEYdHLUaGDGK-10">
          <mxGeometry relative="1" as="geometry">
            <Array as="points">
              <mxPoint x="400" y="420" />
            </Array>
          </mxGeometry>
        </mxCell>
        <mxCell id="YFztM4BEIEYdHLUaGDGK-6" value="&quot;Nome, esta reprovado&quot;" style="shape=document;whiteSpace=wrap;html=1;boundedLbl=1;strokeWidth=3;fontStyle=1;fillColor=#bac8d3;strokeColor=#23445d;" vertex="1" parent="1">
          <mxGeometry x="200" y="400" width="120" height="80" as="geometry" />
        </mxCell>
        <mxCell id="YFztM4BEIEYdHLUaGDGK-12" value="" style="edgeStyle=orthogonalEdgeStyle;rounded=0;orthogonalLoop=1;jettySize=auto;html=1;strokeWidth=3;fontStyle=1" edge="1" parent="1" source="YFztM4BEIEYdHLUaGDGK-8" target="YFztM4BEIEYdHLUaGDGK-10">
          <mxGeometry relative="1" as="geometry">
            <Array as="points">
              <mxPoint x="430" y="420" />
            </Array>
          </mxGeometry>
        </mxCell>
        <mxCell id="YFztM4BEIEYdHLUaGDGK-8" value="&quot;Nome, esta aprovado&quot;" style="shape=document;whiteSpace=wrap;html=1;boundedLbl=1;strokeWidth=3;fontStyle=1;fillColor=#bac8d3;strokeColor=#23445d;" vertex="1" parent="1">
          <mxGeometry x="510" y="400" width="120" height="80" as="geometry" />
        </mxCell>
        <mxCell id="YFztM4BEIEYdHLUaGDGK-10" value="Fim" style="ellipse;whiteSpace=wrap;html=1;strokeWidth=3;fontStyle=1;fillColor=#b1ddf0;strokeColor=#10739e;" vertex="1" parent="1">
          <mxGeometry x="354" y="460" width="120" height="80" as="geometry" />
        </mxCell>
      </root>
    </mxGraphModel>
  </diagram>
</mxfile>
